<?xml version="1.0" standalone="no"?>
<!DOCTYPE svg PUBLIC "-//W3C//DTD SVG 20010904//EN"
 "http://www.w3.org/TR/2001/REC-SVG-20010904/DTD/svg10.dtd">
<svg version="1.0" xmlns="http://www.w3.org/2000/svg"
 width="512.000000pt" height="512.000000pt" viewBox="0 0 512.000000 512.000000"
 preserveAspectRatio="xMidYMid meet">
<metadata>
Created by potrace 1.11, written by Peter Selinger 2001-2013
</metadata>
<g transform="translate(0.000000,512.000000) scale(0.100000,-0.100000)"
fill="#000000" stroke="none">
<path d="M2130 4844 c-30 -9 -91 -32 -135 -53 -74 -34 -84 -36 -130 -28 -101
17 -258 -24 -333 -89 -40 -34 -42 -35 -71 -19 -75 38 -199 8 -274 -67 -34 -34
-56 -48 -75 -48 -15 0 -54 -7 -86 -15 -147 -38 -261 -127 -290 -225 -44 -149
2 -351 95 -415 l38 -27 -34 -29 c-29 -25 -39 -29 -72 -23 -56 9 -88 -19 -86
-75 1 -23 9 -56 17 -73 9 -17 16 -46 16 -64 0 -45 17 -80 47 -93 33 -15 118
-14 183 4 30 8 56 15 57 15 2 0 12 -19 24 -42 20 -39 20 -43 5 -75 -24 -50
-21 -128 5 -154 12 -12 29 -19 40 -16 23 6 26 -18 4 -27 -9 -3 -15 -18 -15
-36 l0 -30 -67 0 c-38 0 -93 -7 -123 -15 -54 -15 -55 -14 -70 8 -37 54 -97
109 -149 134 -74 37 -193 40 -237 7 -55 -41 -69 -69 -73 -155 -8 -180 79 -272
257 -273 71 -1 77 -3 107 -33 24 -24 44 -34 83 -39 74 -10 65 -26 -11 -18
-114 12 -193 -29 -216 -111 -19 -70 21 -128 88 -128 71 0 191 87 213 155 7 21
82 -34 118 -87 46 -67 62 -112 55 -154 -5 -29 -1 -43 16 -65 20 -26 21 -35 16
-129 -6 -117 -30 -195 -82 -274 -29 -44 -41 -53 -72 -58 -132 -22 -218 -95
-148 -127 33 -15 87 1 154 47 43 30 59 35 105 35 174 0 315 -80 386 -219 l30
-61 -38 -43 c-59 -64 -72 -88 -72 -129 0 -34 5 -41 55 -78 30 -22 55 -47 55
-56 0 -20 -32 -80 -67 -127 l-29 -39 -95 -2 c-175 -4 -299 -70 -299 -160 0
-93 189 -62 345 56 59 46 59 46 92 30 18 -9 33 -23 33 -32 0 -15 -62 -145
-111 -233 -18 -31 -20 -43 -11 -63 11 -23 16 -24 107 -24 73 0 95 -3 95 -13 0
-34 -65 -138 -113 -185 -84 -79 -202 -127 -295 -120 -39 2 -47 0 -50 -16 -12
-58 132 -44 272 26 73 37 150 108 187 173 24 43 38 55 96 82 83 39 174 57 249
51 46 -4 62 -10 80 -31 31 -37 44 -88 44 -180 0 -134 -72 -305 -171 -407 -40
-41 -43 -42 -50 -22 -10 25 -34 29 -43 7 -12 -31 5 -45 54 -45 44 0 51 4 92
48 53 57 97 132 134 232 24 66 28 89 28 190 1 103 -2 120 -24 164 -39 78 -64
91 -176 91 -52 0 -94 3 -94 6 0 3 9 14 19 23 33 30 101 178 117 256 50 240
-64 398 -292 404 -68 1 -72 21 -12 61 61 41 177 163 217 228 63 106 84 173 89
283 5 115 -12 193 -53 242 l-24 29 82 -25 c75 -23 103 -25 315 -30 338 -6 578
20 786 85 297 93 549 303 647 537 21 52 26 57 73 73 28 9 75 17 104 17 47 1
57 -3 77 -27 31 -35 45 -86 45 -162 0 -59 -1 -62 -45 -102 -48 -46 -69 -100
-59 -150 4 -20 0 -39 -10 -56 -15 -22 -15 -26 -1 -40 14 -14 10 -20 -41 -61
-31 -26 -66 -46 -80 -46 -39 0 -133 -40 -170 -72 -36 -32 -44 -62 -19 -72 19
-7 98 23 181 69 75 41 97 34 134 -40 23 -46 25 -63 28 -210 2 -94 -1 -171 -7
-186 -7 -20 -23 -31 -61 -44 -55 -18 -120 -68 -120 -91 0 -28 30 -25 95 9 36
19 65 33 65 31 0 -3 -11 -32 -25 -66 -14 -34 -25 -70 -25 -80 0 -27 27 -33 66
-14 19 9 37 16 41 16 3 0 3 -22 0 -50 -10 -83 -53 -157 -141 -242 -54 -53 -77
-81 -73 -92 9 -23 20 -20 69 19 59 48 109 73 156 81 32 5 44 2 61 -15 51 -51
-4 -225 -110 -345 -40 -45 -46 -76 -16 -76 34 0 138 147 166 233 54 168 28
251 -79 251 -28 0 -50 2 -50 4 0 3 8 19 19 36 25 41 42 97 50 160 l6 51 44 3
c51 4 97 -13 112 -40 38 -71 26 -220 -31 -390 -46 -133 -49 -158 -21 -158 11
0 69 25 128 57 107 56 108 56 76 22 -37 -39 -43 -69 -15 -69 10 0 52 11 92 25
40 14 76 23 79 20 9 -10 -47 -112 -93 -169 -25 -30 -46 -62 -46 -70 0 -21 19
-30 35 -16 17 14 17 13 35 -58 22 -85 78 -104 169 -58 86 44 143 128 160 236
12 75 0 144 -31 178 -27 28 -88 45 -132 37 -27 -6 -38 -2 -58 18 -13 13 -29
26 -36 28 -7 3 6 39 38 100 102 198 146 393 138 608 -6 153 -29 224 -86 271
-20 16 -43 30 -50 30 -9 0 -1 15 18 37 84 95 99 247 38 370 -47 93 -155 158
-285 170 l-63 6 0 171 c0 178 -10 242 -49 332 -39 87 -146 174 -214 174 -19 0
-27 5 -27 18 0 42 -32 123 -60 151 -17 16 -43 32 -60 36 -16 4 -30 9 -30 11 0
3 9 23 20 44 53 104 71 316 36 420 -26 75 -59 125 -107 159 -47 35 -132 55
-200 49 l-48 -5 7 31 c4 17 7 72 6 121 0 72 -5 98 -22 132 -35 68 -102 103
-198 103 -49 0 -54 2 -73 34 -39 63 -104 88 -221 88 -80 -1 -175 -21 -235 -49
-32 -15 -35 -15 -70 7 -24 15 -58 24 -102 28 -59 4 -68 8 -98 41 -33 35 -35
36 -117 38 -50 1 -105 -4 -138 -13z m210 -49 l25 -13 -25 -6 c-14 -3 -49 -10
-78 -16 -111 -21 -182 -77 -182 -141 0 -49 -15 -50 -30 -3 -7 20 -28 54 -47
75 l-35 39 55 24 c139 62 250 76 317 41z m629 -56 c52 -11 111 -54 111 -81 0
-7 -13 -21 -29 -31 -16 -9 -39 -38 -52 -65 -12 -26 -23 -48 -24 -50 -1 -1 -36
14 -78 33 -42 20 -106 43 -141 52 -56 15 -66 22 -80 50 -9 19 -16 38 -16 43 0
17 150 55 232 59 15 0 50 -4 77 -10z m-589 -23 c0 -7 -10 -28 -23 -46 -21 -32
-28 -35 -126 -52 -57 -10 -106 -17 -108 -15 -2 3 2 16 8 31 17 36 66 64 141
81 82 18 108 18 108 1z m166 -2 l33 -16 -21 -29 c-20 -27 -26 -29 -90 -29
l-69 0 16 30 c8 16 15 36 15 45 0 21 71 20 116 -1z m-714 -26 c-34 -36 -62
-94 -62 -130 0 -13 9 -38 21 -57 11 -18 19 -34 17 -36 -32 -25 -44 -22 -89 20
-51 48 -107 69 -144 55 -21 -8 -25 -5 -35 26 -11 32 -10 38 11 61 49 52 156
91 258 92 l55 1 -32 -32z m142 -39 c29 -34 43 -76 30 -88 -5 -4 -38 -20 -73
-35 -59 -25 -65 -25 -87 -11 -42 27 -30 80 34 147 40 42 52 40 96 -13z m650
-4 c4 -10 -1 -15 -16 -15 -17 0 -18 2 -8 15 7 8 14 15 15 15 2 0 5 -7 9 -15z
m-1181 -37 c15 -12 16 -17 1 -63 -10 -33 -13 -66 -9 -95 l7 -45 -41 46 c-41
47 -86 72 -155 84 -36 7 -37 8 -19 27 46 51 173 78 216 46z m1861 -21 c22 -17
39 -41 46 -65 13 -50 11 -169 -4 -211 -23 -64 -35 -62 -132 25 -49 43 -89 81
-88 84 0 3 6 19 13 35 7 17 13 61 12 99 l0 68 59 -4 c43 -3 67 -11 94 -31z
m-198 -80 c-9 -47 -28 -62 -55 -45 -12 7 -21 23 -21 36 0 30 25 78 47 91 15 8
20 5 27 -19 5 -16 6 -44 2 -63z m-579 71 c-1 -39 5 -60 23 -78 32 -32 67 -25
113 21 l42 41 55 -17 c92 -29 220 -92 220 -109 0 -28 39 -58 70 -54 23 2 44
-9 99 -56 98 -81 99 -82 67 -107 -31 -24 -35 -65 -7 -74 10 -3 37 1 60 9 42
14 62 6 42 -17 -5 -7 -43 -30 -84 -52 l-73 -39 -40 31 c-69 55 -253 153 -305
163 -61 12 -165 -1 -242 -30 -34 -13 -90 -50 -150 -100 -103 -85 -116 -109
-104 -185 l6 -34 -55 45 c-30 24 -78 56 -107 72 -48 25 -60 27 -172 27 -112 0
-125 -2 -202 -33 -120 -48 -183 -94 -224 -160 -31 -53 -34 -63 -34 -139 l0
-83 -142 0 c-79 0 -143 2 -143 5 0 3 28 33 63 68 80 78 113 145 130 261 l13
88 70 18 c135 35 219 85 261 158 26 43 34 113 19 158 -5 18 1 26 38 48 25 15
60 26 80 26 47 0 114 27 127 52 17 32 50 38 81 15 21 -16 35 -18 69 -13 44 7
131 49 150 73 16 18 187 19 186 1z m113 -5 c0 -3 -7 -15 -17 -25 -17 -19 -43
-24 -43 -9 0 5 -3 16 -6 25 -5 13 1 16 30 16 20 0 36 -3 36 -7z m-447 -20 c-7
-2 -19 -2 -25 0 -7 3 -2 5 12 5 14 0 19 -2 13 -5z m-689 -78 c-3 -18 -1 -41 4
-52 6 -11 7 -25 2 -33 -18 -28 -37 88 -23 139 l6 25 9 -24 c5 -12 6 -37 2 -55z
m134 11 c15 -8 40 -28 55 -44 l28 -29 -64 -52 c-36 -28 -89 -78 -120 -110
l-54 -59 -6 62 c-3 33 -9 70 -13 80 -6 16 -5 17 16 6 25 -13 70 0 70 21 0 8 4
8 15 -1 18 -15 45 -6 45 14 0 9 -8 20 -19 25 -21 12 -34 70 -19 89 13 16 33
15 66 -2z m-539 -46 c-10 -28 -19 -61 -19 -73 0 -17 -9 -26 -36 -36 -65 -23
-77 -93 -33 -186 25 -54 68 -78 154 -87 39 -4 100 -10 136 -14 l66 -6 -43 -76
c-41 -70 -108 -152 -126 -152 -4 0 -23 17 -42 38 -32 34 -33 38 -19 54 17 19
11 48 -10 48 -7 0 -24 -11 -37 -26 -17 -17 -31 -23 -47 -19 -12 3 -45 0 -73
-6 -46 -10 -54 -9 -94 15 -51 30 -74 62 -92 130 -16 60 -18 186 -4 237 13 46
70 113 126 145 51 30 146 63 186 63 l26 1 -19 -50z m196 31 c54 -24 101 -80
120 -143 16 -54 21 -193 7 -202 -5 -3 -18 15 -30 40 -45 93 -161 184 -234 184
-35 0 -37 21 -7 91 21 47 23 49 63 49 22 0 59 -9 81 -19z m459 -185 c-8 -37
-68 -102 -118 -128 -47 -24 -148 -60 -153 -54 -8 8 116 143 187 202 l75 63 8
-27 c4 -15 4 -40 1 -56z m-518 -18 c45 -31 124 -121 124 -142 0 -6 -4 -6 -10
0 -7 7 -29 6 -71 -5 -53 -14 -63 -14 -86 -1 -43 25 -66 64 -71 125 l-4 55 35
0 c23 0 51 -11 83 -32z m-163 -27 c3 -27 15 -68 27 -91 l21 -41 -29 15 c-28
15 -62 76 -62 112 0 20 18 54 29 54 4 0 11 -22 14 -49z m2480 -12 c47 -13 102
-60 127 -109 57 -112 47 -319 -22 -454 l-20 -40 -34 101 c-37 116 -105 257
-170 354 -24 37 -44 71 -44 77 0 5 -12 17 -26 27 -20 13 -23 19 -14 30 20 25
137 33 203 14z m-733 -42 c20 -7 81 -37 135 -67 170 -94 345 -284 345 -375 0
-30 -52 -108 -94 -140 -44 -34 -141 -64 -221 -70 l-60 -4 52 9 c83 15 160 49
188 81 20 25 25 41 25 88 0 90 -42 165 -159 282 -112 111 -161 139 -246 139
-80 0 -131 -31 -170 -102 -27 -48 -30 -64 -33 -164 -5 -128 12 -203 54 -253
l26 -31 -36 0 c-33 0 -40 6 -84 67 -26 36 -65 89 -87 116 -77 95 -108 171 -91
224 7 23 130 125 191 159 45 26 147 52 200 52 17 0 46 -5 65 -11z m-1450 -87
c0 -5 -5 -10 -11 -10 -5 0 -7 5 -4 10 3 6 8 10 11 10 2 0 4 -4 4 -10z m2034
-67 c65 -101 113 -202 153 -321 39 -116 40 -107 -27 -144 -27 -15 -31 -23 -28
-50 4 -41 38 -49 79 -19 l28 21 5 -28 c4 -15 10 -60 15 -101 8 -62 7 -80 -7
-105 -18 -36 -33 -250 -19 -279 12 -27 0 -71 -29 -97 -26 -25 -31 -46 -13 -52
14 -5 -17 -68 -71 -148 -55 -81 -194 -208 -283 -259 -256 -145 -460 -190 -902
-198 -380 -7 -479 12 -575 111 -46 48 -67 56 -77 30 -4 -10 10 -31 38 -60 l44
-44 -35 7 c-19 4 -51 8 -70 8 -49 0 -80 53 -80 136 l0 59 283 2 282 3 3 23 3
22 -284 0 -283 0 -17 75 -16 76 34 102 c87 262 64 545 -53 670 -44 47 -98 69
-184 74 -133 10 -86 24 68 21 l146 -3 12 -35 c16 -48 64 -116 133 -190 48 -53
49 -74 1 -33 -9 8 -22 12 -27 8 -20 -12 -11 -44 16 -62 24 -16 49 -18 188 -16
135 1 172 5 225 23 184 62 289 223 290 445 l1 80 30 -35 c32 -37 119 -158 119
-165 0 -3 -11 -5 -25 -5 -28 0 -44 -25 -27 -42 8 -8 2 -16 -21 -27 -43 -22
-79 -94 -81 -163 -1 -47 1 -53 19 -53 14 0 21 8 23 25 6 60 26 110 54 136 l29
29 37 -20 c45 -25 84 -96 75 -139 -9 -45 -82 -109 -167 -147 -51 -23 -76 -40
-76 -51 0 -9 6 -18 13 -21 18 -6 103 29 164 70 78 51 106 93 111 161 4 51 1
62 -30 106 -18 27 -49 58 -68 68 -34 18 -34 18 -8 18 16 0 42 -13 61 -30 40
-35 77 -40 77 -11 0 10 -7 22 -16 25 -32 12 0 26 62 26 46 0 81 -7 122 -24 84
-36 118 -39 207 -21 145 29 231 89 277 192 34 77 1 173 -94 270 l-51 51 59 30
c33 17 68 37 79 46 11 8 23 16 28 16 4 0 27 -30 51 -67z m-534 29 c52 -24 213
-188 244 -250 37 -73 38 -138 2 -169 -53 -45 -227 -75 -326 -55 l-45 8 67 8
c37 4 71 12 74 18 14 22 -19 32 -105 32 -79 1 -92 4 -113 24 -33 30 -50 124
-39 217 19 165 109 227 241 167z m-730 -104 c145 -75 202 -171 181 -308 -22
-141 -75 -237 -165 -297 -67 -46 -133 -63 -268 -70 -107 -5 -118 -4 -118 11 0
10 -31 53 -70 96 -72 83 -125 172 -116 196 3 8 1 26 -5 41 -5 14 -10 49 -11
77 -2 91 62 174 172 224 103 47 162 61 251 61 78 1 92 -2 149 -31z m-775 -89
c-16 -44 -83 -145 -91 -136 -7 7 45 117 73 152 15 19 29 33 30 31 2 -1 -4 -22
-12 -47z m-248 -54 c44 -44 41 -49 -72 -106 l-85 -43 -52 50 c-29 27 -55 50
-57 51 -7 4 32 44 54 56 11 6 40 9 66 8 25 -1 56 3 70 8 36 15 38 14 76 -24z
m113 -55 c0 -5 -5 -10 -11 -10 -5 0 -7 5 -4 10 3 6 8 10 11 10 2 0 4 -4 4 -10z
m-470 -7 c-1 -5 -7 -19 -14 -32 -14 -24 -14 -24 -20 -3 -4 12 -4 26 -1 32 7
12 35 14 35 3z m105 -63 l39 -40 -39 -2 c-50 -2 -86 0 -92 5 -7 8 30 77 42 77
6 0 29 -18 50 -40z m313 -7 c3 -29 -1 -33 -69 -67 -39 -20 -77 -36 -83 -36 -6
0 -19 11 -28 25 -18 23 -18 23 25 40 23 9 62 29 87 45 25 16 50 27 55 26 6 -1
11 -16 13 -33z m-224 -98 c15 -24 15 -25 -6 -30 -118 -29 -188 -21 -188 21 0
22 4 23 73 27 39 1 79 4 88 5 9 1 24 -9 33 -23z m216 -23 c0 -22 -17 -43 -52
-65 -36 -23 -43 -22 -57 9 -14 31 -17 28 39 53 57 25 70 25 70 3z m2565 -18
c25 -16 55 -80 55 -117 0 -17 -11 -26 -54 -43 l-53 -20 -12 83 c-7 46 -14 90
-17 98 -8 21 49 20 81 -1z m-2352 -55 c138 -38 206 -256 163 -522 -15 -93 -43
-187 -55 -187 -4 0 -16 19 -28 43 -49 101 -147 204 -250 263 l-33 18 1 81 c0
44 4 100 9 125 16 78 45 175 55 182 15 11 94 9 138 -3z m-238 -81 c-10 -73
-16 -78 -32 -27 -12 41 -11 45 8 62 12 9 23 17 26 17 3 0 2 -24 -2 -52z m-65
-95 c0 -18 -4 -33 -9 -33 -12 0 -19 33 -13 65 6 35 22 13 22 -32z m2841 21
c34 -17 93 -83 118 -132 41 -81 54 -286 25 -412 -16 -74 -22 -81 -70 -98 l-31
-10 -6 73 c-6 79 -31 149 -65 179 -28 24 -89 35 -149 26 -26 -4 -49 -7 -51 -5
-1 1 13 25 32 53 50 75 83 172 112 330 4 19 9 21 32 16 15 -4 39 -13 53 -20z
m-131 9 c-1 -59 -100 -336 -115 -321 -2 2 0 33 5 68 5 36 10 99 10 142 0 75 1
76 33 97 32 21 67 28 67 14z m-3188 -109 c49 -16 114 -67 148 -114 l21 -29
-31 -16 c-42 -22 -62 -57 -69 -123 l-6 -57 -52 -3 c-90 -5 -172 31 -203 89
-21 38 -30 119 -19 169 20 93 97 123 211 84z m448 -152 c0 -27 -130 -142 -161
-142 -9 0 -51 122 -44 128 17 17 205 30 205 14z m91 -172 c19 -157 78 -282
159 -338 22 -15 39 -30 40 -34 0 -5 -37 -8 -82 -8 -61 0 -95 -6 -127 -20 -24
-11 -45 -19 -46 -18 -2 2 -16 30 -33 63 -33 67 -94 135 -141 160 -17 8 -31 18
-31 21 0 18 24 44 40 44 11 0 44 9 75 21 86 32 123 96 127 219 1 45 2 47 5 15
2 -22 8 -78 14 -125z m-327 83 c22 -65 21 -71 -21 -78 -21 -4 -46 -9 -55 -12
-15 -4 -18 3 -18 42 0 38 5 52 30 76 16 17 34 28 39 25 5 -3 16 -27 25 -53z
m422 19 c82 -60 158 -154 204 -252 23 -49 23 -50 5 -83 -10 -18 -30 -48 -44
-66 l-27 -33 -45 34 c-84 64 -133 181 -146 349 -4 50 -2 79 4 79 6 0 28 -13
49 -28z m-170 -49 c-3 -26 -13 -58 -22 -71 -15 -24 -73 -53 -126 -66 -26 -6
-28 -4 -28 28 0 32 4 37 59 66 32 17 71 45 87 61 15 16 30 29 32 29 3 0 2 -21
-2 -47z m-226 -114 c0 -31 -1 -32 -40 -26 -23 3 -48 11 -57 18 -13 12 -8 15
38 25 30 6 55 12 57 13 1 0 2 -13 2 -30z m-32 -147 c17 -11 -34 -82 -80 -110
-52 -32 -86 -37 -108 -17 -11 10 -20 24 -20 32 0 27 30 73 58 87 29 16 129 21
150 8z m3493 -59 c107 -48 163 -132 164 -248 0 -79 -13 -119 -63 -187 -29 -41
-39 -48 -67 -48 -56 0 -132 -20 -150 -40 -13 -14 -14 -23 -6 -39 18 -33 57
-37 115 -11 79 35 107 36 143 6 52 -44 66 -94 71 -251 6 -212 -28 -366 -128
-565 -59 -117 -72 -133 -135 -155 -27 -9 -78 -33 -112 -51 -34 -19 -63 -34
-65 -34 -2 0 8 38 24 85 38 118 51 203 46 299 -7 136 -47 180 -165 180 l-62 1
-10 41 c-6 23 -17 47 -26 54 -8 7 -15 16 -15 21 0 5 35 44 78 87 95 95 165
204 204 319 25 73 29 98 26 164 -2 61 -8 84 -25 108 -21 27 -22 34 -12 88 6
33 8 90 5 132 l-7 74 64 -5 c35 -3 83 -14 108 -25z m-213 -104 c-2 -49 -6 -90
-9 -93 -3 -4 -98 14 -107 20 -2 1 15 30 37 64 22 34 46 78 53 96 19 54 31 16
26 -87z m-99 54 c-34 -62 -107 -161 -94 -128 5 11 20 52 33 92 20 58 30 74 51
82 43 16 44 13 10 -46z m-2493 -40 c-3 -3 -19 -2 -36 3 l-30 9 27 39 28 38 8
-42 c5 -23 6 -44 3 -47z m2379 -9 c-8 -20 -15 -39 -15 -42 0 -3 -3 -3 -6 0 -6
7 22 78 31 78 3 0 -2 -16 -10 -36z m-2402 -39 c32 -6 37 -11 37 -35 l0 -29
-56 34 c-68 41 -77 50 -44 42 14 -3 42 -9 63 -12z m-209 -36 c-24 -26 -90 -65
-126 -74 -21 -5 -27 -3 -33 15 -5 14 -2 28 8 37 17 18 97 41 141 42 29 1 29 1
10 -20z m144 -23 c26 -13 57 -35 69 -48 21 -23 22 -27 10 -68 -12 -43 -15 -45
-89 -73 -99 -38 -141 -72 -141 -117 0 -63 65 -89 127 -51 30 19 91 92 115 139
8 15 21 22 40 22 27 0 30 -5 43 -52 7 -30 13 -104 13 -168 0 -127 -21 -214
-76 -320 -45 -88 -43 -88 -77 -27 -40 71 -110 140 -175 171 -55 27 -169 56
-225 56 l-33 0 21 30 c53 74 90 213 90 335 l0 63 38 12 c46 15 90 41 143 86
23 19 45 34 50 34 5 0 31 -11 57 -24z m2631 -45 c11 -7 10 -11 -7 -20 -40 -21
-132 -6 -117 20 8 11 105 12 124 0z m-59 -81 c20 0 54 9 75 20 36 18 41 19 51
5 32 -44 21 -160 -25 -268 -27 -63 -97 -170 -152 -231 l-44 -50 -6 145 c-6
169 -25 245 -74 293 l-32 31 50 46 50 45 36 -18 c19 -10 51 -18 71 -18z
m-2289 -70 c79 -22 120 -100 121 -231 0 -171 -87 -339 -247 -472 l-60 -50 -6
33 c-6 28 -1 45 32 99 42 69 71 140 97 236 21 79 21 281 -1 348 -15 46 -15 47
6 47 12 0 38 -5 58 -10z m-291 -80 c-33 -42 -74 -60 -92 -42 -8 8 -7 16 3 28
15 18 110 66 117 59 3 -2 -10 -22 -28 -45z m2459 -581 c1 -9 -11 -21 -25 -28
-24 -10 -26 -10 -19 6 4 10 12 31 18 47 9 27 11 28 18 10 4 -10 8 -26 8 -35z
m-2399 -96 c0 -10 -16 -28 -36 -41 -29 -19 -35 -28 -31 -49 4 -22 3 -23 -10
-10 -18 17 -7 44 35 90 30 31 42 34 42 10z m0 -139 c0 -14 -3 -15 -17 -3 -10
7 -20 15 -22 16 -2 2 5 3 17 3 14 0 22 -6 22 -16z m244 -22 c127 -68 152 -237
64 -431 -34 -77 -94 -159 -143 -197 -51 -38 -61 -25 -68 93 -5 85 -10 106 -40
165 -31 59 -34 72 -26 105 5 21 9 76 8 123 -1 47 2 107 6 134 l8 49 70 -7 c48
-4 86 -15 121 -34z m-258 -248 c-6 -22 -9 -23 -29 -13 -12 7 -24 13 -25 15 -2
1 9 19 25 38 l28 36 3 -26 c2 -15 1 -37 -2 -50z m2938 -13 c3 -4 -12 -13 -33
-20 -52 -15 -57 -14 -36 9 18 20 59 27 69 11z m-3118 -30 c-33 -36 -154 -92
-211 -98 -56 -6 -62 -2 -49 31 15 39 136 84 228 85 48 1 49 0 32 -18z m3288
-12 c34 -16 50 -68 41 -133 -12 -95 -59 -173 -130 -216 -70 -42 -96 -32 -115
43 -6 23 -18 47 -26 53 -12 9 -9 17 17 50 35 44 70 110 88 166 7 20 20 39 29
41 33 9 71 7 96 -4z m-3055 -151 c6 -27 11 -72 11 -101 l0 -52 -77 2 c-43 1
-81 2 -85 2 -4 1 5 22 22 49 16 26 43 78 61 116 29 61 34 67 45 51 7 -9 18
-39 23 -67z"/>
<path d="M2782 3298 c-7 -7 -12 -28 -13 -47 l-1 -36 -14 33 c-9 21 -21 32 -34
32 -27 0 -25 -20 6 -97 l25 -64 -30 -64 c-84 -180 -197 -224 -540 -211 -221 8
-246 18 -266 109 -9 42 -39 32 -43 -13 -3 -45 28 -96 70 -114 18 -8 85 -37
148 -65 148 -65 229 -84 360 -85 122 -1 169 15 243 83 71 66 98 139 110 296
17 239 14 278 -21 243z"/>
<path d="M2867 3847 c-37 -37 -52 -74 -41 -105 9 -24 15 -27 52 -26 52 1 82
26 82 68 0 65 -54 101 -93 63z"/>
<path d="M1867 3935 c-49 -17 -84 -49 -96 -89 -12 -36 -25 -190 -23 -260 3
-64 46 -141 101 -181 82 -58 243 -43 315 30 115 115 21 407 -159 491 -57 27
-84 29 -138 9z m122 -55 c123 -62 217 -279 164 -380 -39 -76 -184 -111 -264
-64 -30 18 -79 76 -79 94 0 4 23 5 51 2 36 -3 54 -1 59 8 15 24 -1 40 -40 40
-64 0 -70 6 -70 67 0 39 6 66 21 90 22 36 19 69 -6 59 -20 -7 -20 23 1 53 18
26 67 50 102 51 12 0 40 -9 61 -20z"/>
<path d="M2020 3674 c-6 -14 -10 -31 -10 -39 0 -13 53 -45 74 -45 16 0 56 45
56 63 0 23 -40 47 -77 47 -27 0 -35 -5 -43 -26z"/>
</g>
</svg>
