<?xml version="1.0" standalone="no"?>
<!DOCTYPE svg PUBLIC "-//W3C//DTD SVG 20010904//EN"
 "http://www.w3.org/TR/2001/REC-SVG-20010904/DTD/svg10.dtd">
<svg version="1.0" xmlns="http://www.w3.org/2000/svg"
 width="512.000000pt" height="512.000000pt" viewBox="0 0 512.000000 512.000000"
 preserveAspectRatio="xMidYMid meet">
<metadata>
Created by potrace 1.11, written by Peter Selinger 2001-2013
</metadata>
<g transform="translate(0.000000,512.000000) scale(0.100000,-0.100000)"
fill="#000000" stroke="none">
<path d="M780 4904 c-106 -28 -195 -111 -237 -221 l-22 -58 0 -2050 c-1 -1787
1 -2058 14 -2108 31 -120 116 -209 239 -250 45 -15 195 -17 1786 -17 1215 0
1748 3 1771 11 127 41 214 123 250 240 18 59 19 123 19 2103 0 1808 -2 2049
-15 2101 -33 126 -125 217 -252 250 -85 22 -3469 21 -3553 -1z"/>
</g>
</svg>
